{"asset":{"version":"2.0","generator":"THREE.GLTFExporter"},"scenes":[{"name":"AuxScene","nodes":[5]}],"scene":0,"nodes":[{"mesh":0},{"matrix":[1,0,0,0,0,-1,1.2246467991473532e-16,0,0,-1.2246467991473532e-16,-1,0,-0.7,0.5,0,1],"children":[0]},{"children":[1]},{"matrix":[1,0,0,0,0,1,0,0,0,0,1,0,-407.79999999999995,408,8.99999999999995,1],"children":[2]},{"children":[3]},{"children":[4]}],"bufferViews":[{"buffer":0,"byteOffset":0,"byteLength":127296,"target":34962,"byteStride":12},{"buffer":0,"byteOffset":127296,"byteLength":84864,"target":34962,"byteStride":8},{"buffer":0,"byteOffset":212160,"byteLength":127296,"target":34962,"byteStride":12}],"buffers":[{"byteLength":339456,"uri":"data:application/octet-stream;base64,"}],"accessors":[{"bufferView":0,"componentType":5126,"count":10608,"max":[807,807,102],"min":[10,10,0],"type":"VEC3"},{"bufferView":1,"componentType":5126,"count":10608,"max":[807,807],"min":[10,-101],"type":"VEC2"},{"bufferView":2,"componentType":5126,"count":10608,"max":[1,1,1],"min":[-1,-1,-1],"type":"VEC3"}],"materials":[{"pbrMetallicRoughness":{"metallicFactor":0,"roughnessFactor":0},"doubleSided":true}],"meshes":[{"primitives":[{"mode":4,"attributes":{"POSITION":0,"TEXCOORD_0":1,"NORMAL":2},"material":0}]}]}