<svg width="1090" height="336" viewBox="0 0 1090 336" fill="none" xmlns="http://www.w3.org/2000/svg">
<path d="M229.517 186.641V174.443L176.569 146.574V186.641H176.555V244.428L229.531 272.297V186.641H229.517Z" fill="#007AFF"/>
<path d="M248.938 143.466V149.045V208.896V274.099L301.886 246.23V208.896V149.045V115.597L248.938 143.466Z" fill="#007AFF"/>
<path d="M209.619 131.486C209.438 123.709 208.193 115.994 205.918 108.556C201.121 93.1345 191.009 79.9153 177.381 71.25C169.221 66.2658 159.895 63.5123 150.337 63.2651C141.356 62.7954 132.005 64.5746 124.618 69.8267C116.808 75.5793 111.05 83.6866 108.192 92.9559C106.949 96.7583 106.049 100.664 105.502 104.627C105.099 107.505 104.866 110.404 104.805 113.31C104.805 114.434 104.805 115.573 104.805 116.711V206.695L157.753 234.578V117.053L209.477 141.079C209.662 137.876 209.719 134.674 209.619 131.486Z" fill="#007AFF"/>
<path d="M920.642 202.586H948.316C947.761 211.163 945.262 218.777 940.819 225.428C936.438 232.079 930.299 237.271 922.401 241.005C914.564 244.739 905.124 246.606 894.079 246.606C885.44 246.606 877.697 245.206 870.847 242.406C863.998 239.547 858.137 235.463 853.262 230.154C848.449 224.844 844.778 218.427 842.248 210.9C839.718 203.374 838.453 194.943 838.453 185.608V176.77C838.453 167.435 839.749 159.004 842.34 151.478C844.994 143.893 848.758 137.446 853.632 132.137C858.568 126.828 864.461 122.744 871.31 119.885C878.159 117.026 885.811 115.597 894.264 115.597C905.494 115.597 914.965 117.522 922.678 121.373C930.453 125.223 936.469 130.533 940.727 137.3C945.046 144.068 947.637 151.769 948.501 160.404H920.735C920.426 155.27 919.346 150.923 917.495 147.365C915.644 143.747 912.837 141.034 909.073 139.226C905.37 137.359 900.434 136.425 894.264 136.425C889.636 136.425 885.595 137.242 882.139 138.876C878.684 140.509 875.784 142.989 873.439 146.314C871.094 149.64 869.336 153.841 868.163 158.916C867.053 163.934 866.497 169.827 866.497 176.594V185.608C866.497 192.201 867.022 198.006 868.071 203.024C869.12 207.983 870.724 212.184 872.884 215.626C875.105 219.01 877.943 221.577 881.399 223.327C884.916 225.019 889.142 225.865 894.079 225.865C899.879 225.865 904.661 224.99 908.425 223.24C912.189 221.49 915.058 218.893 917.032 215.451C919.069 212.009 920.272 207.721 920.642 202.586Z" fill="#007AFF"/>
<path d="M817.499 168V194.202H770.336V168H817.499Z" fill="#007AFF"/>
<path d="M749.379 116.085V246.607H721.455L667.002 159.114V246.607H639.078V116.085H667.002L721.548 203.667V116.085H749.379Z" fill="#007AFF"/>
<path d="M588.246 116.085H616.078V201.154C616.078 211.058 613.844 219.4 609.376 226.18C604.97 232.959 598.858 238.059 591.039 241.478C583.282 244.897 574.346 246.607 564.231 246.607C554.117 246.607 545.119 244.897 537.238 241.478C529.419 238.059 523.276 232.959 518.808 226.18C514.402 219.4 512.199 211.058 512.199 201.154V116.085H540.124V201.154C540.124 206.932 541.085 211.648 543.009 215.303C544.933 218.958 547.694 221.64 551.293 223.35C554.954 225.06 559.267 225.914 564.231 225.914C569.32 225.914 573.633 225.06 577.17 223.35C580.769 221.64 583.499 218.958 585.361 215.303C587.285 211.648 588.246 206.932 588.246 201.154V116.085Z" fill="#007AFF"/>
<path d="M359.186 116.085H382.828L417.641 211.915L452.453 116.085H476.095L427.135 246.607H408.146L359.186 116.085ZM346.434 116.085H369.983L374.265 209.494V246.607H346.434V116.085ZM465.298 116.085H488.941V246.607H461.016V209.494L465.298 116.085Z" fill="#007AFF"/>
</svg>
