<svg width="3546" height="769" viewBox="0 0 3546 769" fill="none" xmlns="http://www.w3.org/2000/svg">
<path d="M1295.48 415.551V395.231L1207.27 348.806V415.551H1207.25V511.816L1295.5 558.241V415.551H1295.48Z" fill="#007AFF"/>
<path d="M1327.83 343.629V352.923V452.626V561.244L1416.03 514.819V452.626V352.923V297.203L1327.83 343.629Z" fill="#007AFF"/>
<path d="M1262.33 323.672C1262.03 310.717 1259.95 297.866 1256.17 285.474C1248.18 259.785 1231.33 237.764 1208.63 223.329C1195.03 215.026 1179.5 210.439 1163.58 210.027C1148.62 209.245 1133.04 212.208 1120.73 220.958C1107.72 230.541 1098.13 244.046 1093.37 259.487C1091.3 265.821 1089.8 272.328 1088.89 278.93C1088.22 283.724 1087.83 288.554 1087.73 293.393C1087.73 295.266 1087.73 297.163 1087.73 299.06V448.958L1175.93 495.407V299.629L1262.09 339.653C1262.4 334.318 1262.5 328.983 1262.33 323.672Z" fill="#007AFF"/>
<path d="M2446.79 442.114H2492.89C2491.96 456.401 2487.8 469.085 2480.4 480.165C2473.1 491.244 2462.88 499.894 2449.72 506.114C2436.66 512.335 2420.94 515.445 2402.54 515.445C2388.15 515.445 2375.25 513.112 2363.84 508.447C2352.43 503.685 2342.66 496.881 2334.54 488.037C2326.53 479.193 2320.41 468.502 2316.2 455.964C2311.98 443.426 2309.88 429.382 2309.88 413.832V399.108C2309.88 383.557 2312.03 369.513 2316.35 356.975C2320.77 344.341 2327.04 333.601 2335.16 324.757C2343.38 315.912 2353.2 309.109 2364.61 304.347C2376.02 299.584 2388.77 297.203 2402.85 297.203C2421.55 297.203 2437.33 300.41 2450.18 306.825C2463.13 313.24 2473.15 322.084 2480.25 333.358C2487.44 344.632 2491.76 357.461 2493.2 371.846H2446.94C2446.43 363.293 2444.63 356.052 2441.55 350.123C2438.46 344.098 2433.79 339.578 2427.52 336.565C2421.35 333.455 2413.13 331.9 2402.85 331.9C2395.14 331.9 2388.41 333.261 2382.65 335.982C2376.89 338.704 2372.06 342.834 2368.16 348.374C2364.25 353.914 2361.32 360.912 2359.37 369.367C2357.52 377.726 2356.59 387.542 2356.59 398.816V413.832C2356.59 424.814 2357.47 434.485 2359.21 442.843C2360.96 451.104 2363.63 458.102 2367.23 463.836C2370.93 469.474 2375.66 473.75 2381.42 476.666C2387.27 479.484 2394.32 480.893 2402.54 480.893C2412.2 480.893 2420.17 479.436 2426.44 476.52C2432.71 473.604 2437.49 469.279 2440.78 463.545C2444.17 457.811 2446.17 450.667 2446.79 442.114Z" fill="#007AFF"/>
<path d="M2274.96 384.5V428.148H2196.39V384.5H2274.96Z" fill="#007AFF"/>
<path d="M2161.48 298.017V515.446H2114.96L2024.26 369.697V515.446H1977.74V298.017H2024.26L2115.12 443.915V298.017H2161.48Z" fill="#007AFF"/>
<path d="M1893.07 298.017H1939.43V439.729C1939.43 456.227 1935.71 470.123 1928.27 481.417C1920.93 492.711 1910.75 501.206 1897.72 506.902C1884.8 512.598 1869.91 515.446 1853.06 515.446C1836.21 515.446 1821.23 512.598 1808.1 506.902C1795.07 501.206 1784.84 492.711 1777.4 481.417C1770.06 470.123 1766.39 456.227 1766.39 439.729V298.017H1812.9V439.729C1812.9 449.353 1814.51 457.209 1817.71 463.298C1820.92 469.387 1825.52 473.855 1831.51 476.703C1837.61 479.551 1844.79 480.975 1853.06 480.975C1861.54 480.975 1868.73 479.551 1874.62 476.703C1880.61 473.855 1885.16 469.387 1888.26 463.298C1891.47 457.209 1893.07 449.353 1893.07 439.729V298.017Z" fill="#007AFF"/>
<path d="M1511.49 298.017H1550.87L1608.86 457.654L1666.85 298.017H1706.24L1624.68 515.446H1593.05L1511.49 298.017ZM1490.24 298.017H1529.47L1536.6 453.622V515.446H1490.24V298.017ZM1688.25 298.017H1727.64V515.446H1681.12V453.622L1688.25 298.017Z" fill="#007AFF"/>
</svg>
